<svg t="1629818002986" class="icon" viewBox="0 0 1024 1024" version="1.1" xmlns="http://www.w3.org/2000/svg" p-id="14479" width="320" height="320"><path d="M468.6 325.3L335 410.7l-54.3-43.3-6.4-4.8-6.8 3-118.4 51-0.4 0.2 10 30 111.4-48.2 55.4 43.9 7.4 6 7.9-4.8 139.9-89.6 9.4 20.6 38.6-67.6-70-3.6zM474.3 407.3h45.3v145.4h-45.3zM396 447.3h45.3v105.4H396zM317.7 498.4H363v54.4h-45.3zM239.4 464.7h45.3v88h-45.3zM161.1 455.5h45.3v97.3h-45.3zM768.1 304.2c-68.6-26.3-145.7 7.9-172.4 76.2-26.7 68.3 7.4 145.3 76 171.6 32.2 12.3 67.9 11.8 99.6-1.5l3.2-1.3L719.4 428l48.7-123.8z" fill="#1296db" p-id="14480"></path><path d="M861.4 446.1c11.6-61.5-22.3-122.6-80.9-145.1l-47.3 120.6 128.2 24.5zM791.5 556.9c39.3-17.7 67.3-53.4 75.2-95.7l-130.2-25 55 120.7z" fill="#1296db" p-id="14481"></path><path d="M972 758.2V98H52v660.2h361.3v107.9l-21.4 5.3c-7.7 1.9-15.5 3.6-23.4 5.1-11.5 2.1-20.1 12-20.4 24-0.3 14.1 11.5 25.5 25.6 25.5H634c9.1 0.3 17.7-4.4 22.4-12.3 4.7-7.9 4.7-17.6 0-25.5-3.7-6.3-10-10.6-17-11.9-6.8-1.2-13.5-2.4-20.2-4.1L594 866V758.2h378z m-880-50V148h840v560.2H92z" fill="#1296db" p-id="14482"></path></svg>
