<svg t="1629598018038" class="icon" viewBox="0 0 1024 1024" version="1.1" xmlns="http://www.w3.org/2000/svg" p-id="14716" width="300" height="300"><path d="M422.053432 69.2502H96.336092c-16.548908 0-29.610388 15.184841-29.610388 29.610389v327.632968c0 15.805988 39.464827 27.694759 29.610388 27.694759h323.93781c13.06148 0 31.389918-15.705704 31.389918-27.801182V101.543697c0-17.346063-30.658254-32.293497-29.610388-32.293497z m-29.610388 325.71734H125.947504V128.472h266.49554v266.49554zM928.789545 69.24713H598.648452c-14.728446 0-28.542056 17.250896-28.542056 30.685883v324.644915c0 16.514115 13.757329 29.610388 29.610388 29.610388h325.71734c14.606673 0 29.610388-16.152888 29.610388-27.801182V101.543697c0.001023-13.964036-15.767102-32.296567-26.254967-32.296567z m-32.965809 325.72041H629.328195V128.472h266.495541v266.49554z m-473.770304 177.664376H96.336092c-16.548908 0-29.610388 19.812231-29.610388 29.610388v327.632969c0 14.195304 39.464827 27.694759 29.610388 27.694759l323.93781-0.00307c18.551518 0 31.389918-19.164478 31.389918-27.801183V604.924389c0-9.975189-14.775518-32.292474-29.610388-32.292473z m-29.610388 325.716316H125.947504V631.852692h266.49554v266.49554z m536.346501-325.719386H598.648452c-16.099676 0-28.542056 17.701151-28.542056 30.682813v324.647984c0 17.378809 16.981766 29.610388 29.610388 29.610389h325.71734c12.999059 0 29.610388-16.898879 29.610388-27.804253V604.924389c0.001023-12.386098-15.796778-32.295544-26.254967-32.295543z m-32.965809 325.719386H629.328195V631.852692h266.495541v266.49554z" fill="#ffffff" p-id="14717"></path></svg>
