<svg t="1629818320291" class="icon" viewBox="0 0 1024 1024" version="1.1" xmlns="http://www.w3.org/2000/svg" p-id="28808" width="310" height="310"><path d="M1021.060741 766.520889a65.991111 65.991111 0 0 1-65.991111 65.991111H68.93037a65.991111 65.991111 0 0 1-65.991111-65.991111V68.93037a65.991111 65.991111 0 0 1 65.991111-65.991111h886.13926a65.991111 65.991111 0 0 1 65.991111 65.991111v697.590519z" fill="#F45947" p-id="28809"></path><path d="M134.637037 224.274963L3.204741 355.726222V766.103704a65.991111 65.991111 0 0 0 65.991111 65.991111H134.637037V224.274963" fill-opacity=".25" p-id="28810"></path><path d="M370.308741 917.352296a103.689481 103.689481 0 1 1-103.689482-103.689481 103.689481 103.689481 0 0 1 103.689482 103.689481z m499.617185 0a103.689481 103.689481 0 1 1-103.689482-103.689481 103.689481 103.689481 0 0 1 103.689482 103.689481z" fill="#7A7287" p-id="28811"></path><path d="M794.81363 162.910815H229.18637a131.982222 131.982222 0 0 0-131.982222 131.982222v556.183704a65.991111 65.991111 0 0 0 65.991111 65.991111h697.609482a65.991111 65.991111 0 0 0 65.991111-65.991111v-556.183704a131.982222 131.982222 0 0 0-131.982222-131.982222z" fill="#E5DEDE" p-id="28812"></path><path d="M512 163.195259H229.18637a131.982222 131.982222 0 0 0-131.982222 131.982222V851.437037a65.991111 65.991111 0 0 0 65.991111 65.991111H512V163.195259" fill-opacity=".08" p-id="28813"></path><path d="M342.167704 766.615704a75.415704 75.415704 0 1 1-75.415704-75.415704 75.415704 75.415704 0 0 1 75.415704 75.415704z m490.496-0.170667a75.415704 75.415704 0 1 1-75.415704-75.415704 75.415704 75.415704 0 0 1 75.415704 75.415704z" fill="#FFFFFF" p-id="28814"></path><path d="M832.474074 577.896296V323.26163a65.991111 65.991111 0 0 0-65.991111-65.991111H257.479111a65.991111 65.991111 0 0 0-65.991111 65.991111v254.634666H832.474074z" fill="#94B3D4" p-id="28815"></path><path d="M766.103704 257.270519H509.44l322.692741 322.69274V323.26163a65.991111 65.991111 0 0 0-65.991111-65.991111" fill="#FFFFFF" fill-opacity=".2" p-id="28816"></path></svg>
