<svg t="1629600738374" class="icon" viewBox="0 0 1024 1024" version="1.1" xmlns="http://www.w3.org/2000/svg" p-id="17733" width="310" height="310"><path d="M840.832 289.194667l-191.36-191.36A42.666667 42.666667 0 0 0 619.264 85.333333H256a85.333333 85.333333 0 0 0-85.333333 85.333334v682.666666a85.333333 85.333333 0 0 0 85.333333 85.333334h512a85.333333 85.333333 0 0 0 85.333333-85.333334V319.402667a42.666667 42.666667 0 0 0-12.501333-30.208zM512 426.666667a85.333333 85.333333 0 1 1-85.333333 85.333333 85.333333 85.333333 0 0 1 85.333333-85.333333z m109.525333 351.061333a846.250667 846.250667 0 0 1-218.325333 0 57.173333 57.173333 0 0 1-40.149333-52.992 73.472 73.472 0 0 1 77.653333-67.925333h143.317333a73.514667 73.514667 0 0 1 77.696 67.925333 57.216 57.216 0 0 1-40.192 52.992zM696.874667 298.666667A56.874667 56.874667 0 0 1 640 241.792V128l170.666667 170.666667z" p-id="17734" fill="#ffffff"></path></svg>
