<svg t="1629600038513" class="icon" viewBox="0 0 1024 1024" version="1.1" xmlns="http://www.w3.org/2000/svg" p-id="16805" width="300" height="300"><path d="M481.28 0l-146.285714 89.073371L481.28 175.542857V0zM525.165714 175.542857l146.285715-87.478857L525.165714 0v175.542857zM525.165714 906.971429l146.285715-87.888458L525.165714 731.428571v175.542858zM481.28 906.971429V731.428571l-146.285714 88.181029L481.28 906.971429M890.88 701.2352L744.594286 614.4v175.542857l146.285714-88.707657M276.48 614.4l-146.285714 87.683657L276.48 789.942857V614.4zM744.594286 541.257143l146.285714-88.151772L744.594286 365.714286v175.542857zM276.48 541.257143V365.714286l-146.285714 87.932343L276.48 541.257143M890.88 204.551314L744.594286 117.028571v175.542858l146.285714-88.020115M276.48 117.028571l-146.285714 88.385829L276.48 292.571429V117.028571zM905.508571 424.228571V248.685714l-146.285714 88.254172L905.508571 424.228571M115.565714 424.228571l146.285715-88.064C208.822857 304.449829 165.010286 278.235429 115.565714 248.685714v175.542857zM261.851429 570.704457L115.565714 482.742857v175.542857l146.285715-87.581257M759.222857 570.88L905.508571 658.285714V482.742857l-146.285714 88.137143M320.365714 614.4v175.542857l146.285715-87.990857L320.365714 614.4M700.708571 789.942857V614.4l-146.285714 87.625143 146.285714 87.917714M320.365714 307.2l146.285715-88.122514L320.365714 131.657143v175.542857zM700.708571 848.457143l-146.285714 88.766171L700.708571 1024V848.457143zM700.708571 292.571429V131.657143l-146.285714 81.042286 146.285714 79.872" fill="#57B382" p-id="16806"></path><path d="M481.28 0v175.542857l-146.285714-86.469486L481.28 0M525.165714 175.542857V0l146.285715 88.064-146.285715 87.478857M525.165714 906.971429V731.428571l146.285715 87.6544L525.165714 906.971429M481.28 906.971429l-146.285714-87.361829L481.28 731.428571v175.542858zM890.88 701.2352L744.594286 789.942857V614.4l146.285714 86.8352M276.48 614.4v175.542857l-146.285714-87.8592L276.48 614.4M744.594286 541.257143V365.714286l146.285714 87.391085L744.594286 541.257143M276.48 541.257143l-146.285714-87.610514L276.48 365.714286v175.542857zM890.88 204.551314L744.594286 292.571429V117.028571l146.285714 87.522743M276.48 117.028571v175.542858l-146.285714-87.157029L276.48 117.028571M905.508571 424.228571l-146.285714-87.288685L905.508571 248.685714v175.542857zM115.565714 424.228571V248.685714c49.444571 29.549714 93.257143 55.764114 146.285715 87.478857L115.565714 424.228571M261.851429 570.704457L115.565714 658.285714V482.742857l146.285715 87.9616M759.222857 570.88L905.508571 482.742857v175.542857l-146.285714-87.405714M320.365714 614.4l146.285715 87.552L320.365714 789.942857V614.4zM700.708571 789.942857l-146.285714-87.917714 146.285714-87.625143v175.542857zM320.365714 307.2V131.657143l146.285715 87.420343L320.365714 307.2M700.708571 848.457143v175.542857l-146.285714-86.776686L700.708571 848.457143M700.708571 292.571429l-146.285714-79.872L700.708571 131.657143v160.914286z" fill="#57B382" p-id="16807"></path></svg>
