<svg t="1629597396192" class="icon" viewBox="0 0 1024 1024" version="1.1" xmlns="http://www.w3.org/2000/svg" p-id="3138" width="310" height="310"><path d="M512 499.8c-5.3 0-10.7-1.2-15.6-3.7l-370.7-184c-12.7-6.2-20.8-19.3-20.8-33.5 0-14.1 8.1-27.2 20.7-33.4l329-165c36-18.1 78.9-18.1 114.9 0l329.1 165.1c0.2 0.1 0.5 0.2 0.7 0.4 12.6 6.7 20.2 19.7 19.9 33.9-0.3 14-8.3 26.4-20.9 32.6l-370.7 184c-4.9 2.4-10.3 3.6-15.6 3.6zM215.5 278.5L512 425.7l296.6-147.2-270.5-135.7c-16.3-8.2-35.8-8.2-52.1 0L215.5 278.5z m-59.3 29.7z m0 0z m-0.1-59.2c0.1 0 0.1 0.1 0.2 0.1 0 0-0.1 0-0.2-0.1z" fill="#ffffff" p-id="3139"></path><path d="M509.6 957.3c-6 0-12.1-1.4-17.5-4.4-0.2-0.1-0.3-0.2-0.5-0.3L120 746.5c-11.1-6.2-18-17.9-18-30.6V282.4c0-12.8 6.5-24.6 17.3-31.5s24.2-7.8 35.8-2.4c0.3 0.1 0.5 0.2 0.8 0.4l371.7 184.5c11.9 5.9 19.4 18.1 19.4 31.4V920c0 13.1-7 25.3-18.1 32-5.9 3.6-12.6 5.3-19.3 5.3zM172 695.3l305 169.2v-378L172 335.1v360.2z" fill="#ffffff" p-id="3140"></path><path d="M514.4 957.3c-6.7 0-13.3-1.8-19.2-5.3-11.2-6.7-18.1-19-18.1-32V464.8c0-13.3 7.5-25.4 19.4-31.4l371.7-184.5c0.3-0.1 0.5-0.2 0.8-0.4 11.6-5.4 25-4.5 35.8 2.4s17.3 18.6 17.3 31.5v433.5c0 12.7-6.9 24.4-18 30.6L532.4 952.7c-0.2 0.1-0.3 0.2-0.5 0.3-5.5 2.9-11.5 4.3-17.5 4.3z m1-35.2zM547 486.5v378l305-169.2V335.1L547 486.5zM324.7 597.7c-19.3 0-35-15.7-35-35V371.8c0-19.3 15.7-35 35-35s35 15.7 35 35v190.9c0 19.3-15.7 35-35 35z" fill="#ffffff" p-id="3141"></path></svg>
