<svg t="1629818139079" class="icon" viewBox="0 0 1024 1024" version="1.1" xmlns="http://www.w3.org/2000/svg" p-id="25829" width="310" height="310"><path d="M522.669811 544.336842c-5.389474 0-10.778947-5.389474-16.168422-5.389474L91.511916 291.031579C80.732968 280.252632 75.343495 269.473684 75.343495 258.694737c0-10.778947 5.389474-21.557895 16.168421-26.947369L506.501389 26.947368c10.778947-5.389474 21.557895-5.389474 26.947369 0l414.989474 204.8c16.168421 5.389474 21.557895 16.168421 21.557894 26.947369s-5.389474 21.557895-16.168421 32.336842L538.838232 538.947368c-5.389474 0-10.778947 5.389474-16.168421 5.389474zM177.743495 264.084211l344.926316 204.8 344.926315-204.8-344.926315-172.463158-344.926316 172.463158z" fill="#3E82FE" p-id="25830"></path><path d="M522.669811 689.852632c-5.389474 0-10.778947 0-16.168422-5.389474L91.511916 436.547368C75.343495 431.157895 69.954021 409.6 80.732968 393.431579c5.389474-16.168421 26.947368-21.557895 43.11579-10.778947l398.821053 237.136842 398.821052-237.136842c16.168421-10.778947 37.726316-5.389474 43.11579 10.778947 10.778947 16.168421 5.389474 37.726316-10.778948 43.115789L538.838232 684.463158c-5.389474 5.389474-10.778947 5.389474-16.168421 5.389474z" fill="#3E82FE" p-id="25831"></path><path d="M522.669811 846.147368c-5.389474 0-10.778947 0-16.168422-5.389473L91.511916 592.842105c-16.168421-10.778947-21.557895-32.336842-10.778948-43.115789 5.389474-21.557895 26.947368-26.947368 43.11579-16.168421l398.821053 237.136842 398.821052-237.136842c16.168421-10.778947 37.726316-5.389474 43.11579 10.778947 10.778947 16.168421 5.389474 37.726316-10.778948 43.11579L538.838232 840.757895c-5.389474 0-10.778947 5.389474-16.168421 5.389473z" fill="#3E82FE" p-id="25832"></path><path d="M522.669811 997.052632c-5.389474 0-10.778947 0-16.168422-5.389474L91.511916 743.747368c-16.168421-10.778947-21.557895-32.336842-10.778948-43.115789 10.778947-16.168421 32.336842-21.557895 43.11579-10.778947l398.821053 237.136842 398.821052-237.136842c16.168421-10.778947 37.726316-5.389474 43.11579 10.778947 10.778947 16.168421 5.389474 37.726316-10.778948 43.115789L538.838232 991.663158c-5.389474 5.389474-10.778947 5.389474-16.168421 5.389474z" fill="#3E82FE" p-id="25833"></path></svg>
