<svg t="1629630659101" class="icon" viewBox="0 0 1065 1024" version="1.1" xmlns="http://www.w3.org/2000/svg" p-id="22491" width="300" height="300"><path d="M899.215719 361.232468l-141.922807-58.68538c-17.366082-6.587135-36.528655 1.796491-43.71462 19.162573-6.587135 17.366082 1.796491 36.528655 19.162573 43.71462l70.063158 28.743859-70.063158 32.336842c-16.767251 7.185965-24.552047 26.947368-17.366081 43.71462 5.389474 11.377778 17.366082 19.162573 30.540351 19.162573 4.790643 0.59883 9.581287-0.59883 13.174269-3.592982l139.527485-64.673684c11.377778-5.389474 19.162573-17.366082 19.162573-29.941521 1.197661-13.773099-6.587135-25.150877-18.563743-29.94152z m-322.17076-132.940351c-17.366082-5.389474-35.929825 3.592982-41.918129 20.959064l-72.458479 220.369591c-5.389474 17.366082 3.592982 35.929825 20.959064 41.918129 2.994152 1.197661 5.988304 1.796491 9.581287 1.796491 14.37193-0.59883 26.947368-10.180117 32.336842-23.354386l72.458479-220.369591c4.790643-16.767251-4.191813-35.330994-20.959064-41.319298z m-222.166082 93.417544c-7.185965-16.168421-25.749708-24.552047-43.115789-19.162573l-143.120468 58.68538c-11.976608 5.389474-20.360234 17.366082-20.959064 30.540351 0 13.174269 7.185965 24.552047 19.162573 30.540351l140.725146 64.673684c4.191813 2.395322 8.383626 3.592982 13.174269 3.592982 13.174269 0 24.552047-7.185965 30.540351-19.162573 7.185965-16.767251-0.59883-36.528655-17.366082-43.71462l-70.063158-32.336842 70.063158-28.743859c19.162573-8.982456 28.145029-28.145029 20.959064-44.912281z m258.694737 547.330994h-512.59883c-18.563743 0-33.534503 14.97076-33.534503 33.534503 0 18.563743 14.97076 33.534503 33.534503 33.534503h512.59883c18.563743 0 33.534503-14.97076 33.534503-33.534503 0-18.563743-14.97076-33.534503-33.534503-33.534503z" fill="#1890FF" p-id="22492"></path><path d="M999.226386 70.799719v598.83041h-931.780117v-598.83041h931.780117m0-66.470175h-931.780117c-36.528655 0-66.470175 29.94152-66.470175 66.470175v598.83041c0 36.528655 29.94152 66.470175 66.470175 66.470175h931.780117c36.528655 0 66.470175-29.94152 66.470175-66.470175v-598.83041c0-37.127485-29.94152-66.470175-66.470175-66.470175z m-33.534503 864.711111h-155.695906c-18.563743 0-33.534503 14.97076-33.534503 33.534503 0 18.563743 14.97076 33.534503 33.534503 33.534503h155.695906c18.563743 0 33.534503-14.97076 33.534503-33.534503 0-18.563743-14.97076-33.534503-33.534503-33.534503z" fill="#1890FF" p-id="22493"></path><path d="M714.183111 1019.945918c-65.272515 0-117.969591-52.697076-117.969591-117.969591 0-65.272515 52.697076-117.969591 117.969591-117.96959 65.272515 0 117.969591 52.697076 117.969591 117.96959-0.59883 65.272515-52.697076 117.969591-117.969591 117.969591z m0-168.870175c-28.145029 0-50.900585 22.755556-50.900585 51.499415 0 28.145029 22.755556 50.900585 51.499416 50.900585 28.145029 0 50.900585-22.755556 50.900584-50.900585 0-28.74386-23.354386-51.499415-51.499415-51.499415z" fill="#1890FF" p-id="22494"></path></svg>
